<?xml version="1.0" encoding="utf-8"?>
<!-- Generator: Adobe Illustrator 22.0.1, SVG Export Plug-In . SVG Version: 6.00 Build 0)  -->
<svg version="1.1" id="Layer_1" xmlns="http://www.w3.org/2000/svg" xmlns:xlink="http://www.w3.org/1999/xlink" x="0px" y="0px"
	 viewBox="0 0 1000 1000" style="enable-background:new 0 0 1000 1000;" xml:space="preserve">
<style type="text/css">
	.st0{fill:#3655B6;}
	.st1{fill:#C0070B;}
	.st2{fill:#74D3FE;}
	.st3{fill:#81A71D;}
	.st4{fill:#3975CC;}
	.st5{fill:#92170C;}
	.st6{fill:#C93D18;}
	.st7{fill:#539CD2;}
	.st8{fill:#EFD2C6;}
	.st9{fill:#010300;}
	.st10{fill:#AAAEA4;}
	.st11{fill:#010300;stroke:#999898;stroke-width:0.4;stroke-miterlimit:10;}
</style>
<g>
	<g>
		<path class="st0" d="M555,373.3c8-3.4-2.2-72.7-22.4-132.9c-7.9-23.4-27.4-75.8-34.7-73c-8,3.1-0.5,73.5,21.7,136.6
			C529.3,331.4,548.3,376.1,555,373.3z"/>
		<path class="st0" d="M548.7,342.9c6.4-5.8-26.3-67.8-65.4-117.9c-15.2-19.5-51.1-62.4-57-57.3c-6.5,5.6,23.9,69.5,65.8,121.6
			C510.5,311.9,543.3,347.8,548.7,342.9z"/>
		<path class="st0" d="M549,366.2c5.6-6.6-34.5-64-79.5-108.9c-17.5-17.4-58.4-55.6-63.6-49.8c-5.8,6.4,32.4,66,80.4,112.5
			C507.2,340.3,544.2,371.7,549,366.2z"/>
		<path class="st0" d="M556.5,388.4c5-7.1-40.6-60.3-89.8-100.5c-19.1-15.6-63.6-49.5-68.2-43.3c-5.1,6.9,38.7,62.5,91.1,104
			C512.3,366.7,552.3,394.4,556.5,388.4z"/>
		<path class="st0" d="M559.3,377.9c3.3-7.4-48.2-46.8-100.7-73.6c-20.4-10.4-67.5-32.4-70.6-25.9c-3.5,7.3,46.8,49.1,102.5,76.5
			C514.8,366.9,556.5,384.1,559.3,377.9z"/>
		<path class="st0" d="M561.2,387.3c2.1-7.8-55.2-39.4-111.4-58.3c-21.9-7.4-71.9-22.4-74-15.4c-2.3,7.7,54.2,41.9,113.7,61
			C515.4,382.9,559.4,393.9,561.2,387.3z"/>
		<path class="st0" d="M561.3,381.6c0.5-7.8-59.6-26.2-116.3-32.8c-22-2.6-72.2-6.7-72.8,0.3c-0.7,7.8,59.1,28.8,118.9,34.9
			C517.2,386.6,560.9,388.2,561.3,381.6z"/>
		<path class="st0" d="M564.2,397.4c-0.4-7.8-62.7-21.4-120.3-23.7c-22.4-0.9-73.1-1.2-72.9,5.8c0.2,7.7,62.5,24,123.1,25.5
			C520.6,405.7,564.5,404,564.2,397.4z"/>
		<path class="st0" d="M557.1,398.9c-1.4-7.4-62.5-11.4-117.6-5.1c-21.4,2.4-69.7,9.5-68.6,16.2c1.2,7.4,62.7,13.9,120.5,6.5
			C516.7,413.2,558.3,405.2,557.1,398.9z"/>
		<path class="st0" d="M556,389.4c-3-6.9-64.1,1.5-117.2,18.6c-20.6,6.7-66.8,23.3-64.3,29.6c2.7,6.9,64.8,0.9,120.4-17.9
			C519.1,411.4,558.5,395.2,556,389.4z"/>
		<path class="st0" d="M565,396.6c-3.4-7.4-67.4,4.7-122.8,25.9c-21.5,8.2-69.6,28.5-66.7,35.3c3.1,7.4,68.3-2.1,126.2-25.3
			C526.9,422.4,567.9,402.9,565,396.6z"/>
		<path class="st0" d="M560.2,392.5c-4.3-6.9-66.3,13.2-118.5,41.2c-20.3,10.9-65.4,37.1-61.8,43.4c4,7,67.5-10.7,122-41
			C525.6,422.9,563.8,398.4,560.2,392.5z"/>
		<path class="st0" d="M561,402.5c-4.5-6.7-65.8,15.7-116.9,45.6c-19.9,11.6-64,39.5-60.1,45.7c4.3,6.8,67-13.3,120.3-45.6
			C527.6,434.2,564.8,408.2,561,402.5z"/>
		<path class="st0" d="M557,406.8c-5.1-6.3-64.3,20.9-112.8,54.9c-18.9,13.2-60.6,44.6-56.2,50.4c4.8,6.4,65.7-18.6,116.2-55.2
			C526.3,441,561.3,412.1,557,406.8z"/>
		<path class="st0" d="M561.9,422.5c-5.1-6.3-64.3,20.9-112.8,54.9c-18.9,13.2-60.6,44.6-56.2,50.4c4.8,6.4,65.7-18.6,116.2-55.2
			C531.2,456.7,566.2,427.9,561.9,422.5z"/>
		<path class="st0" d="M566.8,435.5c-5.1-6.3-64.3,20.9-112.8,54.9c-18.9,13.2-60.6,44.6-56.2,50.4c4.8,6.4,65.7-18.6,116.2-55.2
			C536.1,469.8,571.1,440.9,566.8,435.5z"/>
		<path class="st0" d="M574.4,446.4c-5.1-6.3-64.3,20.9-112.8,54.9c-18.9,13.2-60.6,44.6-56.2,50.4c4.8,6.4,65.7-18.6,116.2-55.2
			C543.7,480.6,578.7,451.8,574.4,446.4z"/>
		<path class="st0" d="M581.7,458c-5.1-6.3-64.3,20.9-112.8,54.9c-18.9,13.2-60.6,44.6-56.2,50.4c4.8,6.4,65.7-18.6,116.2-55.2
			C551,492.2,586,463.3,581.7,458z"/>
		<path class="st0" d="M574.6,479.7c-4.6-5.7-58.4,18.9-102.5,49.6c-17.1,11.9-55.1,40.3-51.1,45.5c4.4,5.8,59.7-16.8,105.7-49.8
			C546.7,510.6,578.5,484.5,574.6,479.7z"/>
	</g>
	<g>
		<path class="st0" d="M695.5,601.3c8.1-3,48.3,54.3,75,112c10.4,22.4,32.2,73.9,25,76.9c-7.9,3.2-50.9-53-78.1-114.1
			C705.5,649.4,688.6,603.8,695.5,601.3z"/>
		<path class="st0" d="M677.2,586.6c8.4-2.2,42.7,58.8,63.6,118.9c8.1,23.3,24.7,76.7,17.3,78.9c-8.2,2.4-45.4-57.8-66.5-121.2
			C682.4,635.5,670.1,588.5,677.2,586.6z"/>
		<path class="st0" d="M689.5,602.4c7.4-0.5,25.6,56.8,32.6,110.9c2.7,21,7.2,68.8,0.5,69.5c-7.4,0.7-28-56.4-34.5-113.4
			C685.3,644.5,683.2,602.8,689.5,602.4z"/>
		<path class="st0" d="M673,595.9c7.2,1,18.5,61.6,19.4,116.9c0.3,21.5-0.5,70-7,69.4c-7.2-0.8-20.9-61.7-21-119.8
			C664.4,637,666.9,595,673,595.9z"/>
		<path class="st0" d="M683.7,593.6c7.2,2.1,4,61.8-8.7,114.6c-4.9,20.5-17.6,66.7-24.1,65c-7.2-1.9-6.4-62.2,7.7-117.6
			C664.7,631.4,677.6,591.8,683.7,593.6z"/>
		<path class="st0" d="M666.6,589.6c6.6,2.9-1.1,61.6-17,112.6c-6.2,19.8-21.7,64.2-27.7,61.8c-6.6-2.6-1.2-62.3,16.4-115.6
			C645.9,625,661,587.2,666.6,589.6z"/>
		<path class="st0" d="M667.5,582.5c6.5,3.9-10.7,62.6-35.5,112.2c-9.6,19.3-32.8,62.2-38.7,58.9c-6.5-3.7,8.5-63.6,35.2-115.4
			C640.2,615.5,662,579.2,667.5,582.5z"/>
		<path class="st0" d="M676.1,586.8c5.5,5.2-23.4,59.7-57.7,103.8c-13.3,17.1-44.8,54.8-49.8,50.3c-5.6-5,21.4-61.2,58.1-107
			C642.8,613.9,671.5,582.4,676.1,586.8z"/>
		<path class="st0" d="M666.4,582.6c5.5,5.4-26.2,59.1-63.2,101.8c-14.4,16.6-48.2,53.2-53.3,48.4c-5.6-5.2,24.2-60.7,63.8-105.1
			C630.9,608.4,661.7,578,666.4,582.6z"/>
		<path class="st0" d="M667.5,589.1c4.8,6-33.3,54.7-75.4,92.1c-16.3,14.5-54.4,46.1-58.9,40.8c-4.9-5.9,31.5-56.6,76.3-95.2
			C629.1,610,663.5,584,667.5,589.1z"/>
		<path class="st0" d="M659.8,586.3c4.7,6.3-35.6,53-79.6,88.3c-17.1,13.7-56.9,43.4-61.3,37.9c-4.8-6.1,33.8-54.9,80.7-91.3
			C620.1,605.2,655.9,581,659.8,586.3z"/>
		<path class="st0" d="M660.1,579.9c4.2,6.9-41.7,53.2-90.3,87.1c-18.9,13.2-62.6,41.6-66.6,35.5c-4.4-6.8,40-55.3,91.7-90.3
			C617.4,596.9,656.5,574,660.1,579.9z"/>
		<path class="st0" d="M647,569.9c4.2,6.9-41.7,53.2-90.3,87.1c-18.9,13.2-62.6,41.6-66.6,35.5c-4.4-6.8,40-55.3,91.7-90.3
			C604.3,586.9,643.4,564,647,569.9z"/>
		<path class="st0" d="M636.4,560.8c4.2,6.9-41.7,53.2-90.3,87.1c-18.9,13.2-62.6,41.6-66.6,35.5c-4.4-6.8,40-55.3,91.7-90.3
			C593.7,577.9,632.9,554.9,636.4,560.8z"/>
		<path class="st0" d="M628.9,549.9c4.2,6.9-41.7,53.2-90.3,87.1c-18.9,13.2-62.6,41.6-66.6,35.5c-4.4-6.8,40-55.3,91.7-90.3
			C586.2,567,625.3,544,628.9,549.9z"/>
		<path class="st0" d="M620.5,539.1c4.2,6.9-41.7,53.2-90.3,87.1c-18.9,13.2-62.6,41.6-66.6,35.5c-4.4-6.8,40-55.3,91.7-90.3
			C577.8,556.2,616.9,533.2,620.5,539.1z"/>
		<path class="st0" d="M597.7,538.3c3.8,6.3-37.8,48.4-81.8,79.3c-17.1,12-56.7,37.9-60.3,32.4c-4-6.1,36.3-50.3,83-82.2
			C559.1,553.9,594.4,533,597.7,538.3z"/>
		<path class="st0" d="M690.2,601.5c7.4-4.4,57.2,44.8,93.8,96.8c14.2,20.2,44.8,67,38.3,71.2c-7.2,4.6-59.5-43.1-97.2-98.3
			C708.6,647.1,683.9,605.3,690.2,601.5z"/>
		<path class="st0" d="M690.8,604.7c6.7-5.5,63.2,36,106.9,82.1c17,17.9,54.1,59.7,48.3,64.8c-6.5,5.6-65.2-34-110.5-83.1
			C715.7,647.1,685.1,609.4,690.8,604.7z"/>
		<path class="st0" d="M672.4,624.4c4.8-7.2,71,15.6,126.5,46.5c21.6,12,69.5,40.9,65.4,47.5c-4.5,7.3-72.4-13-130.2-46.4
			C708.8,657.4,668.4,630.5,672.4,624.4z"/>
	</g>
	
		<ellipse transform="matrix(0.9535 -0.3015 0.3015 0.9535 -129.8322 213.6804)" class="st1" cx="627.3" cy="527.4" rx="66.7" ry="21.2"/>
	
		<ellipse transform="matrix(0.9535 -0.3015 0.3015 0.9535 -125.8386 215.0066)" class="st1" cx="633.6" cy="515.1" rx="66.4" ry="26.4"/>
	
		<ellipse transform="matrix(0.9782 -0.2079 0.2079 0.9782 -93.2176 142.6815)" class="st1" cx="632.3" cy="514.9" rx="66.4" ry="26.4"/>
	<g>
		
			<ellipse transform="matrix(0.9083 -0.4182 0.4182 0.9083 -166.5292 254.7424)" class="st2" cx="497.9" cy="507.3" rx="34.8" ry="7.9"/>
		
			<ellipse transform="matrix(0.9083 -0.4182 0.4182 0.9083 -162.0567 253.7621)" class="st2" cx="497.9" cy="496.6" rx="34.8" ry="7.9"/>
		
			<ellipse transform="matrix(0.9083 -0.4182 0.4182 0.9083 -158.1835 251.8396)" class="st2" cx="495.4" cy="486.8" rx="34.8" ry="7.9"/>
		
			<ellipse transform="matrix(0.9083 -0.4182 0.4182 0.9083 -153.3819 250.5983)" class="st2" cx="495" cy="475.2" rx="34.8" ry="7.9"/>
		
			<ellipse transform="matrix(0.9083 -0.4182 0.4182 0.9083 -150.6955 247.3734)" class="st2" cx="489" cy="467.5" rx="34.8" ry="7.9"/>
		
			<ellipse transform="matrix(0.935 -0.3547 0.3547 0.935 -129.5814 202.1182)" class="st2" cx="486.5" cy="454.5" rx="34.8" ry="7.9"/>
		
			<ellipse transform="matrix(0.9647 -0.2635 0.2635 0.9647 -100.1468 143.2852)" class="st2" cx="484.1" cy="445" rx="34.8" ry="7.9"/>
		
			<ellipse transform="matrix(0.9647 -0.2635 0.2635 0.9647 -97.3602 142.9114)" class="st2" cx="484.1" cy="434.4" rx="34.8" ry="7.9"/>
		
			<ellipse transform="matrix(0.9647 -0.2635 0.2635 0.9647 -94.9064 142.5823)" class="st2" cx="484.1" cy="425.1" rx="34.8" ry="7.9"/>
		
			<ellipse transform="matrix(0.9647 -0.2635 0.2635 0.9647 -91.6781 142.8064)" class="st2" cx="486.5" cy="413.2" rx="34.8" ry="7.9"/>
		
			<ellipse transform="matrix(0.9809 -0.1945 0.1945 0.9809 -69.1771 102.8095)" class="st2" cx="489" cy="403.7" rx="34.8" ry="7.9"/>
		<ellipse transform="matrix(0.9879 -0.1551 0.1551 0.9879 -55.3523 80.6261)" class="st2" cx="489" cy="395" rx="34.8" ry="7.9"/>
		
			<ellipse transform="matrix(0.9879 -0.1551 0.1551 0.9879 -53.8479 80.9147)" class="st2" cx="491.6" cy="385.5" rx="34.8" ry="7.9"/>
		
			<ellipse transform="matrix(0.9964 -8.511945e-02 8.511945e-02 0.9964 -30.2094 43.5361)" class="st2" cx="495.4" cy="376" rx="34.8" ry="7.9"/>
		
			<ellipse transform="matrix(0.9993 -3.798784e-02 3.798784e-02 0.9993 -13.6059 19.179)" class="st2" cx="497.9" cy="367.6" rx="34.8" ry="7.9"/>
		
			<ellipse transform="matrix(0.9993 -3.798784e-02 3.798784e-02 0.9993 -13.2548 19.4417)" class="st2" cx="505" cy="358.5" rx="34.8" ry="7.9"/>
		<ellipse class="st2" cx="509.3" cy="350.5" rx="34.8" ry="7.9"/>
		<ellipse class="st2" cx="513.2" cy="341.5" rx="34.8" ry="7.9"/>
		
			<ellipse transform="matrix(0.158 -0.9874 0.9874 0.158 102.9711 792.867)" class="st2" cx="516.4" cy="336.1" rx="7.9" ry="34.8"/>
		<ellipse transform="matrix(0.352 -0.936 0.936 0.352 26.8737 700.2844)" class="st2" cx="519.2" cy="330.7" rx="7.9" ry="34.8"/>
		<ellipse transform="matrix(0.5 -0.866 0.866 0.5 -18.7511 615.3236)" class="st2" cx="523.5" cy="323.9" rx="7.9" ry="34.8"/>
		
			<ellipse transform="matrix(0.6446 -0.7645 0.7645 0.6446 -57.4566 515.7208)" class="st2" cx="526" cy="319.7" rx="7.9" ry="34.8"/>
		
			<ellipse transform="matrix(0.8017 -0.5977 0.5977 0.8017 -84.3105 380.2798)" class="st2" cx="531" cy="317.2" rx="7.9" ry="34.8"/>
		<ellipse transform="matrix(0.935 -0.3547 0.3547 0.935 -77.6591 210.7438)" class="st2" cx="536" cy="317.2" rx="7.9" ry="34.8"/>
		<ellipse transform="matrix(0.935 -0.3547 0.3547 0.935 -75.074 213.737)" class="st2" cx="545.5" cy="311.7" rx="7.9" ry="34.8"/>
		
			<ellipse transform="matrix(0.9879 -0.1551 0.1551 0.9879 -49.1174 91.1319)" class="st2" cx="559.4" cy="360.3" rx="7.9" ry="34.8"/>
		
			<ellipse transform="matrix(0.8467 -0.5321 0.5321 0.8467 -103.8967 344.3217)" class="st2" cx="545.5" cy="352.4" rx="7.9" ry="34.8"/>
		
			<ellipse transform="matrix(0.8467 -0.5321 0.5321 0.8467 -105.9786 341.5437)" class="st2" cx="539.6" cy="354.7" rx="7.9" ry="34.8"/>
		
			<ellipse transform="matrix(0.8467 -0.5321 0.5321 0.8467 -108.126 338.6782)" class="st2" cx="533.6" cy="357" rx="7.9" ry="34.8"/>
		
			<ellipse transform="matrix(0.8467 -0.5321 0.5321 0.8467 -110.5007 334.528)" class="st2" cx="525.2" cy="359" rx="7.9" ry="34.8"/>
		
			<ellipse transform="matrix(0.8467 -0.5321 0.5321 0.8467 -112.6644 330.0873)" class="st2" cx="516.4" cy="360.5" rx="7.9" ry="34.8"/>
	</g>
	<g>
		
			<ellipse transform="matrix(0.6965 -0.7176 0.7176 0.6965 -278.2299 574.8362)" class="st2" cx="540.4" cy="616.3" rx="34.8" ry="7.9"/>
		
			<ellipse transform="matrix(0.6965 -0.7176 0.7176 0.6965 -277.7207 583.1519)" class="st2" cx="550.5" cy="619.9" rx="34.8" ry="7.9"/>
		
			<ellipse transform="matrix(0.6965 -0.7176 0.7176 0.6965 -279.1588 590.8875)" class="st2" cx="558.9" cy="625.4" rx="34.8" ry="7.9"/>
		
			<ellipse transform="matrix(0.6965 -0.7176 0.7176 0.6965 -278.9427 599.9091)" class="st2" cx="569.7" cy="629.7" rx="34.8" ry="7.9"/>
		
			<ellipse transform="matrix(0.6965 -0.7176 0.7176 0.6965 -283.2507 606.2154)" class="st2" cx="575" cy="637.9" rx="34.8" ry="7.9"/>
		
			<ellipse transform="matrix(0.6454 -0.7638 0.7638 0.6454 -284.41 676.4629)" class="st2" cx="586.4" cy="644.6" rx="34.8" ry="7.9"/>
		
			<ellipse transform="matrix(0.5693 -0.8221 0.8221 0.5693 -278.3341 768.8066)" class="st2" cx="594.6" cy="650" rx="34.8" ry="7.9"/>
		
			<ellipse transform="matrix(0.5693 -0.8221 0.8221 0.5693 -276.9295 778.5208)" class="st2" cx="604.5" cy="653.6" rx="34.8" ry="7.9"/>
		
			<ellipse transform="matrix(0.5693 -0.8221 0.8221 0.5693 -275.6926 787.0751)" class="st2" cx="613.3" cy="656.7" rx="34.8" ry="7.9"/>
		
			<ellipse transform="matrix(0.5693 -0.8221 0.8221 0.5693 -271.859 797.7021)" class="st2" cx="625.4" cy="658.3" rx="34.8" ry="7.9"/>
		
			<ellipse transform="matrix(0.5096 -0.8604 0.8604 0.5096 -255.6685 869.7297)" class="st2" cx="635.1" cy="659.1" rx="34.8" ry="7.9"/>
		
			<ellipse transform="matrix(0.4748 -0.8801 0.8801 0.4748 -244.7759 913.905)" class="st2" cx="643.3" cy="662" rx="34.8" ry="7.9"/>
		
			<ellipse transform="matrix(0.4748 -0.8801 0.8801 0.4748 -240.2376 922.9182)" class="st2" cx="653.1" cy="662.7" rx="34.8" ry="7.9"/>
		
			<ellipse transform="matrix(0.4116 -0.9114 0.9114 0.4116 -213.2404 994.2654)" class="st2" cx="663.4" cy="662.3" rx="34.8" ry="7.9"/>
		
			<ellipse transform="matrix(0.3681 -0.9298 0.9298 0.3681 -191.5179 1043.7126)" class="st2" cx="672.1" cy="662.8" rx="34.8" ry="7.9"/>
		
			<ellipse transform="matrix(0.3681 -0.9298 0.9298 0.3681 -181.202 1051.58)" class="st2" cx="683.1" cy="659.1" rx="34.8" ry="7.9"/>
		
			<ellipse transform="matrix(0.3325 -0.9431 0.9431 0.3325 -158.3799 1091.6858)" class="st2" cx="692" cy="657.7" rx="34.8" ry="7.9"/>
		
			<ellipse transform="matrix(0.3325 -0.9431 0.9431 0.3325 -151.1831 1100.4332)" class="st2" cx="701.8" cy="657" rx="34.8" ry="7.9"/>
		
			<ellipse transform="matrix(0.1793 -0.9838 0.9838 0.1793 -64.072 1234.775)" class="st2" cx="708.1" cy="655.8" rx="34.8" ry="7.9"/>
		
			<ellipse transform="matrix(0.9998 -2.073178e-02 2.073178e-02 0.9998 -13.4243 14.9433)" class="st2" cx="714" cy="654.9" rx="7.9" ry="34.8"/>
		
			<ellipse transform="matrix(0.983 -0.1836 0.1836 0.983 -107.6279 143.6126)" class="st2" cx="721.9" cy="653.1" rx="7.9" ry="34.8"/>
		
			<ellipse transform="matrix(0.9354 -0.3537 0.3537 0.9354 -183.7141 299.1739)" class="st2" cx="726.7" cy="652.2" rx="7.9" ry="34.8"/>
		
			<ellipse transform="matrix(0.8303 -0.5573 0.5573 0.8303 -237.3197 517.2456)" class="st2" cx="730.7" cy="648.3" rx="7.9" ry="34.8"/>
		
			<ellipse transform="matrix(0.6454 -0.7638 0.7638 0.6454 -231.8809 787.5959)" class="st2" cx="732.4" cy="643.5" rx="7.9" ry="34.8"/>
		
			<ellipse transform="matrix(0.6454 -0.7638 0.7638 0.6454 -223.5061 791.492)" class="st2" cx="740.7" cy="636.5" rx="7.9" ry="34.8"/>
		
			<ellipse transform="matrix(0.6454 -0.7638 0.7638 0.6454 -214.3892 756.7231)" class="st2" cx="707.8" cy="609.3" rx="7.9" ry="34.8"/>
		
			<ellipse transform="matrix(0.6454 -0.7638 0.7638 0.6454 -232.1993 772.7659)" class="st2" cx="716.2" cy="636.5" rx="7.9" ry="34.8"/>
		
			<ellipse transform="matrix(0.6965 -0.7176 0.7176 0.6965 -273.9553 568.0024)" class="st2" cx="534.5" cy="607.9" rx="34.8" ry="7.9"/>
		
			<ellipse transform="matrix(0.6965 -0.7176 0.7176 0.6965 -269.475 561.5869)" class="st2" cx="529.1" cy="599.3" rx="34.8" ry="7.9"/>
	</g>
	<g>
		<ellipse transform="matrix(0.866 -0.5 0.5 0.866 -229.498 340.5996)" class="st3" cx="520.8" cy="598.5" rx="34.3" ry="10.5"/>
		<ellipse transform="matrix(0.866 -0.5 0.5 0.866 -225.2808 352.7585)" class="st3" cx="545.6" cy="596.8" rx="34.3" ry="10.5"/>
		<ellipse transform="matrix(0.866 -0.5 0.5 0.866 -223.1707 364.2133)" class="st3" cx="568" cy="598.5" rx="34.3" ry="10.5"/>
		<ellipse transform="matrix(0.866 -0.5 0.5 0.866 -223.8066 370.5338)" class="st3" cx="579.5" cy="602.9" rx="34.3" ry="10.5"/>
		<ellipse transform="matrix(0.866 -0.5 0.5 0.866 -223.3226 379.1071)" class="st3" cx="595.8" cy="606.3" rx="34.3" ry="10.5"/>
		<ellipse transform="matrix(0.866 -0.5 0.5 0.866 -222.7836 386.5573)" class="st3" cx="609.9" cy="609" rx="34.3" ry="10.5"/>
		<ellipse transform="matrix(0.866 -0.5 0.5 0.866 -221.2744 396.0415)" class="st3" cx="628.4" cy="610.9" rx="34.3" ry="7.5"/>
		<ellipse transform="matrix(0.866 -0.5 0.5 0.866 -220.0349 402.2274)" class="st3" cx="640.5" cy="611.7" rx="34.3" ry="8.6"/>
		<ellipse transform="matrix(0.866 -0.5 0.5 0.866 -223.263 405.3865)" class="st3" cx="644.8" cy="619.3" rx="28" ry="8.5"/>
		<ellipse transform="matrix(0.866 -0.5 0.5 0.866 -220.1682 342.4953)" class="st3" cx="529" cy="582.1" rx="34.3" ry="10.5"/>
		<ellipse transform="matrix(0.866 -0.5 0.5 0.866 -211.9387 359.1515)" class="st3" cx="564.2" cy="575.1" rx="34.3" ry="10.5"/>
		<ellipse transform="matrix(0.866 -0.5 0.5 0.866 -212.3504 351.4775)" class="st3" cx="549.7" cy="572" rx="34.3" ry="10.5"/>
		<ellipse transform="matrix(0.866 -0.5 0.5 0.866 -198.0227 321.9026)" class="st3" cx="501.7" cy="530.5" rx="34.3" ry="10.5"/>
		<ellipse transform="matrix(0.866 -0.5 0.5 0.866 -178.5837 326.9572)" class="st3" cx="520.8" cy="496.7" rx="34.3" ry="10.5"/>
		<ellipse transform="matrix(0.866 -0.5 0.5 0.866 -223.2343 410.9825)" class="st3" cx="655.3" cy="622.1" rx="28" ry="8.5"/>
		
			<ellipse transform="matrix(0.7071 -0.7071 0.7071 0.7071 -241.8681 652.679)" class="st3" cx="666.9" cy="618.3" rx="28" ry="8.5"/>
		
			<ellipse transform="matrix(0.7071 -0.7071 0.7071 0.7071 -242.3122 659.111)" class="st3" cx="674.5" cy="622.1" rx="21.7" ry="6.4"/>
		
			<ellipse transform="matrix(0.6454 -0.7638 0.7638 0.6454 -232.3168 741.9094)" class="st3" cx="682.9" cy="621.2" rx="21.7" ry="6.4"/>
		
			<ellipse transform="matrix(0.3681 -0.9298 0.9298 0.3681 -148.4197 1031.363)" class="st3" cx="684.6" cy="624.9" rx="13.7" ry="4.7"/>
		
			<ellipse transform="matrix(0.2235 -0.9747 0.9747 0.2235 -69.4418 1156.9341)" class="st3" cx="691.4" cy="622.1" rx="13.7" ry="4.7"/>
		
			<ellipse transform="matrix(6.195690e-02 -0.9981 0.9981 6.195690e-02 35.8918 1274.7893)" class="st3" cx="696.1" cy="618.3" rx="13.7" ry="4.7"/>
		<ellipse class="st3" cx="701.8" cy="614.4" rx="4.7" ry="13.7"/>
		
			<ellipse transform="matrix(0.9354 -0.3537 0.3537 0.9354 -170.3326 288.1956)" class="st3" cx="703.3" cy="610.1" rx="4.7" ry="13.7"/>
	</g>
	<g>
		
			<ellipse transform="matrix(0.7796 -0.6262 0.6262 0.7796 -210.3609 424.5238)" class="st3" cx="498" cy="511.2" rx="34.3" ry="10.5"/>
		
			<ellipse transform="matrix(0.7796 -0.6262 0.6262 0.7796 -193.9455 426.2406)" class="st3" cx="508.7" cy="488.7" rx="34.3" ry="10.5"/>
		
			<ellipse transform="matrix(0.7796 -0.6262 0.6262 0.7796 -179.0246 425.5315)" class="st3" cx="515.1" cy="467.1" rx="34.3" ry="10.5"/>
		
			<ellipse transform="matrix(0.7796 -0.6262 0.6262 0.7796 -171.3171 422.8922)" class="st3" cx="515.2" cy="454.9" rx="34.3" ry="10.5"/>
		
			<ellipse transform="matrix(0.7796 -0.6262 0.6262 0.7796 -160.4694 420.9936)" class="st3" cx="518" cy="438.5" rx="34.3" ry="10.5"/>
		
			<ellipse transform="matrix(0.7796 -0.6262 0.6262 0.7796 -151.0081 419.4918)" class="st3" cx="520.6" cy="424.3" rx="34.3" ry="10.5"/>
		
			<ellipse transform="matrix(0.7796 -0.6262 0.6262 0.7796 -138.7235 418.6077)" class="st3" cx="525.5" cy="406.4" rx="34.3" ry="7.5"/>
		
			<ellipse transform="matrix(0.7796 -0.6262 0.6262 0.7796 -130.6366 418.3496)" class="st3" cx="529.1" cy="394.8" rx="34.3" ry="8.6"/>
		
			<ellipse transform="matrix(0.7796 -0.6262 0.6262 0.7796 -127.6339 413.3961)" class="st3" cx="523.6" cy="388.1" rx="28" ry="8.5"/>
		
			<ellipse transform="matrix(0.7796 -0.6262 0.6262 0.7796 -205.2697 435.6216)" class="st3" cx="516.4" cy="509.5" rx="34.3" ry="10.5"/>
		
			<ellipse transform="matrix(0.7796 -0.6262 0.6262 0.7796 -182.0668 441.036)" class="st3" cx="535.6" cy="479.2" rx="34.3" ry="10.5"/>
		
			<ellipse transform="matrix(0.7796 -0.6262 0.6262 0.7796 -191.7703 442.7622)" class="st3" cx="533.2" cy="493.9" rx="34.3" ry="10.5"/>
		
			<ellipse transform="matrix(0.7796 -0.6262 0.6262 0.7796 -120.6372 411.7981)" class="st3" cx="524.8" cy="377.3" rx="28" ry="8.5"/>
		
			<ellipse transform="matrix(0.9152 -0.4031 0.4031 0.9152 -103.091 245.8698)" class="st3" cx="532.5" cy="367.8" rx="28" ry="8.5"/>
		
			<ellipse transform="matrix(0.9152 -0.4031 0.4031 0.9152 -99.7745 244.8491)" class="st3" cx="531.8" cy="359.4" rx="21.7" ry="6.4"/>
		
			<ellipse transform="matrix(0.9457 -0.325 0.325 0.9457 -85.2872 193.2156)" class="st3" cx="535.6" cy="351.9" rx="21.7" ry="6.4"/>
		
			<ellipse transform="matrix(1 -6.483004e-03 6.483004e-03 1 -2.2513 3.4614)" class="st3" cx="532.8" cy="349" rx="13.7" ry="4.7"/>
		
			<ellipse transform="matrix(0.3731 -0.9278 0.9278 0.3731 15.0885 717.1517)" class="st3" cx="538.2" cy="347.4" rx="4.7" ry="13.7"/>
		
			<ellipse transform="matrix(0.6446 -0.7645 0.7645 0.6446 -72.4478 539.956)" class="st3" cx="544.5" cy="347.9" rx="4.7" ry="13.7"/>
		
			<ellipse transform="matrix(0.7796 -0.6262 0.6262 0.7796 -97.0142 422.0295)" class="st3" cx="551.2" cy="348.9" rx="4.7" ry="13.7"/>
	</g>
	<g>
		
			<ellipse transform="matrix(0.8814 -0.4723 0.4723 0.8814 -359.3272 160.2628)" class="st4" cx="139.5" cy="795.8" rx="87.2" ry="8.2"/>
		
			<ellipse transform="matrix(0.8388 -0.5444 0.5444 0.8388 -390.2294 244.2883)" class="st4" cx="217.5" cy="781.2" rx="87.2" ry="8.2"/>
		
			<ellipse transform="matrix(0.8388 -0.5444 0.5444 0.8388 -398.8733 226.6952)" class="st4" cx="183.4" cy="787" rx="87.2" ry="8.2"/>
		
			<ellipse transform="matrix(0.9018 -0.4322 0.4322 0.9018 -313.8771 148.0922)" class="st4" cx="168.8" cy="764.5" rx="87.2" ry="8.2"/>
		
			<ellipse transform="matrix(0.9272 -0.3746 0.3746 0.9272 -254.6554 138.8738)" class="st4" cx="229.9" cy="724.5" rx="87.2" ry="8.2"/>
		
			<ellipse transform="matrix(0.7071 -0.7071 0.7071 0.7071 -452.7478 412.3277)" class="st4" cx="271.3" cy="752.7" rx="87.2" ry="8.2"/>
		
			<ellipse transform="matrix(0.8068 -0.5908 0.5908 0.8068 -387.9573 297.2315)" class="st4" cx="260.5" cy="741.9" rx="87.2" ry="8.2"/>
		
			<ellipse transform="matrix(0.8388 -0.5444 0.5444 0.8388 -357.5069 255.6649)" class="st4" cx="253" cy="731.6" rx="87.2" ry="8.2"/>
		
			<ellipse transform="matrix(0.9272 -0.3746 0.3746 0.9272 -242.9496 146.4604)" class="st4" cx="255.3" cy="698.2" rx="87.2" ry="8.2"/>
		
			<ellipse transform="matrix(0.8814 -0.4723 0.4723 0.8814 -272.3741 226.9904)" class="st4" cx="315.9" cy="656" rx="160.7" ry="8.2"/>
		
			<ellipse transform="matrix(0.9018 -0.4322 0.4322 0.9018 -231.1142 216.3126)" class="st4" cx="360.3" cy="616.6" rx="160.7" ry="11.9"/>
		
			<ellipse transform="matrix(0.9618 -0.2736 0.2736 0.9618 -151.8607 117.2417)" class="st4" cx="344.4" cy="603.1" rx="87.2" ry="10.5"/>
		
			<ellipse transform="matrix(0.9909 -0.1343 0.1343 0.9909 -73.1976 59.2359)" class="st4" cx="402.3" cy="572" rx="87.2" ry="10.5"/>
		
			<ellipse transform="matrix(0.7796 -0.6262 0.6262 0.7796 -364.5278 376.5165)" class="st4" cx="352.7" cy="706.2" rx="160.7" ry="11.9"/>
		
			<ellipse transform="matrix(0.7071 -0.7071 0.7071 0.7071 -378.0516 473.9559)" class="st4" cx="383.1" cy="693.3" rx="87.2" ry="10.5"/>
		
			<ellipse transform="matrix(0.7071 -0.7071 0.7071 0.7071 -339.8313 501)" class="st4" cx="434.8" cy="660.7" rx="87.2" ry="10.5"/>
	</g>
	<g>
		
			<ellipse transform="matrix(0.8263 -0.5632 0.5632 0.8263 -370.1183 266.3046)" class="st5" cx="246.7" cy="733.2" rx="128.3" ry="15.4"/>
		
			<ellipse transform="matrix(0.7796 -0.6262 0.6262 0.7796 -350.8562 369.8367)" class="st5" cx="350.1" cy="683.5" rx="128.3" ry="15.4"/>
		
			<ellipse transform="matrix(0.8814 -0.4723 0.4723 0.8814 -269.0575 237.5555)" class="st5" cx="338.6" cy="654.7" rx="128.3" ry="15.4"/>
		<ellipse transform="matrix(0.866 -0.5 0.5 0.866 -245.7889 288.9169)" class="st5" cx="416.2" cy="603.1" rx="128.3" ry="15.4"/>
	</g>
	<g>
		
			<ellipse transform="matrix(0.9062 -0.4228 0.4228 0.9062 -110.64 273.0638)" class="st6" cx="560.2" cy="385.9" rx="5.1" ry="16.3"/>
		
			<ellipse transform="matrix(0.7405 -0.6721 0.6721 0.7405 -119.297 474.0988)" class="st6" cx="554.3" cy="391.5" rx="5.1" ry="16.3"/>
		
			<ellipse transform="matrix(0.6166 -0.7873 0.7873 0.6166 -101.9824 584.0059)" class="st6" cx="548.6" cy="396.7" rx="5.1" ry="16.3"/>
		<ellipse transform="matrix(0.5 -0.866 0.866 0.5 -75.6159 672.4265)" class="st6" cx="544.5" cy="401.7" rx="5.1" ry="16.3"/>
		
			<ellipse transform="matrix(0.3211 -0.9471 0.9471 0.3211 -21.3304 786.3335)" class="st6" cx="537.8" cy="408" rx="5.1" ry="16.3"/>
		
			<ellipse transform="matrix(0.3211 -0.9471 0.9471 0.3211 -31.2735 786.71)" class="st6" cx="533.1" cy="415.2" rx="5.1" ry="16.3"/>
		<ellipse transform="matrix(0.1627 -0.9867 0.9867 0.1627 28.713 873.5159)" class="st6" cx="529" cy="419.8" rx="5.1" ry="16.3"/>
		<ellipse transform="matrix(0.1627 -0.9867 0.9867 0.1627 21.577 879.5717)" class="st6" cx="529" cy="427.1" rx="5.1" ry="16.3"/>
		
			<ellipse transform="matrix(4.682109e-02 -0.9989 0.9989 4.682109e-02 72.4924 940.4363)" class="st6" cx="529" cy="432.2" rx="5.1" ry="16.3"/>
		
			<ellipse transform="matrix(4.682109e-02 -0.9989 0.9989 4.682109e-02 63.398 944.4399)" class="st6" cx="526.6" cy="439" rx="5.1" ry="16.3"/>
		
			<ellipse transform="matrix(4.682109e-02 -0.9989 0.9989 4.682109e-02 54.221 951.4952)" class="st6" cx="525.7" cy="447.3" rx="5.1" ry="16.3"/>
		
			<ellipse transform="matrix(0.999 -4.527830e-02 4.527830e-02 0.999 -20.0474 24.2947)" class="st6" cx="526.3" cy="454.7" rx="16.3" ry="5.1"/>
		
			<ellipse transform="matrix(0.999 -4.527830e-02 4.527830e-02 0.999 -20.3974 24.3633)" class="st6" cx="527.6" cy="462.4" rx="16.3" ry="5.1"/>
		
			<ellipse transform="matrix(0.9733 -0.2296 0.2296 0.9733 -93.2197 133.9404)" class="st6" cx="529" cy="467.6" rx="16.3" ry="5.1"/>
		
			<ellipse transform="matrix(0.9733 -0.2296 0.2296 0.9733 -94.6497 135.046)" class="st6" cx="533.1" cy="474.3" rx="16.3" ry="5.1"/>
		
			<ellipse transform="matrix(0.3731 -0.9278 0.9278 0.3731 -60.4373 782.9865)" class="st6" cx="549.2" cy="436.2" rx="45.8" ry="11.7"/>
		
			<ellipse transform="matrix(0.999 -4.527830e-02 4.527830e-02 0.999 -18.7726 25.9851)" class="st6" cx="564.2" cy="427.4" rx="9.3" ry="32.3"/>
		
			<ellipse transform="matrix(0.999 -4.527830e-02 4.527830e-02 0.999 -19.762 26.1833)" class="st6" cx="568.1" cy="449.3" rx="9.3" ry="32.3"/>
		
			<ellipse transform="matrix(0.9312 -0.3644 0.3644 0.9312 -128.5233 240.7695)" class="st6" cx="573.7" cy="461" rx="9.3" ry="32.3"/>
		
			<ellipse transform="matrix(0.9312 -0.3644 0.3644 0.9312 -131.9426 235.9331)" class="st6" cx="559.2" cy="467.6" rx="9.3" ry="32.3"/>
		
			<ellipse transform="matrix(0.9312 -0.3644 0.3644 0.9312 -138.592 235.3183)" class="st6" cx="554.3" cy="484.9" rx="9.3" ry="32.3"/>
		
			<ellipse transform="matrix(0.999 -4.527830e-02 4.527830e-02 0.999 -20.3974 24.3633)" class="st6" cx="527.6" cy="462.4" rx="16.3" ry="5.1"/>
		
			<ellipse transform="matrix(0.999 -4.527830e-02 4.527830e-02 0.999 -22.222 24.8467)" class="st6" cx="537.4" cy="503" rx="16.3" ry="5.1"/>
		
			<ellipse transform="matrix(0.999 -4.527830e-02 4.527830e-02 0.999 -21.9126 25.1644)" class="st6" cx="544.5" cy="496.3" rx="16.3" ry="5.1"/>
		
			<ellipse transform="matrix(0.999 -4.527830e-02 4.527830e-02 0.999 -21.6234 25.4885)" class="st6" cx="551.8" cy="490.1" rx="16.3" ry="5.1"/>
		
			<ellipse transform="matrix(0.999 -4.527830e-02 4.527830e-02 0.999 -21.2633 25.0593)" class="st6" cx="542.5" cy="481.9" rx="16.3" ry="5.1"/>
		
			<ellipse transform="matrix(0.999 -4.527830e-02 4.527830e-02 0.999 -21.5516 25.154)" class="st6" cx="544.5" cy="488.3" rx="16.3" ry="5.1"/>
		
			<ellipse transform="matrix(0.999 -4.527830e-02 4.527830e-02 0.999 -22.5713 24.8546)" class="st6" cx="537.4" cy="510.7" rx="16.3" ry="5.1"/>
		
			<ellipse transform="matrix(0.999 -4.527830e-02 4.527830e-02 0.999 -22.9184 24.7783)" class="st6" cx="535.5" cy="518.3" rx="16.3" ry="5.1"/>
		<ellipse transform="matrix(0.9829 -0.1843 0.1843 0.9829 -87.0968 108.09)" class="st6" cx="538" cy="522.6" rx="16.3" ry="5.1"/>
		
			<ellipse transform="matrix(0.8344 -0.5511 0.5511 0.8344 -176.5707 408.5763)" class="st6" cx="591.7" cy="498.2" rx="9.3" ry="32.3"/>
		
			<ellipse transform="matrix(0.8344 -0.5511 0.5511 0.8344 -180.3048 402.6519)" class="st6" cx="580" cy="501.4" rx="9.3" ry="32.3"/>
		
			<ellipse transform="matrix(0.999 -4.527830e-02 4.527830e-02 0.999 -22.542 26.1493)" class="st6" cx="566" cy="510.7" rx="32.3" ry="9.3"/>
		
			<ellipse transform="matrix(0.9062 -0.4228 0.4228 0.9062 -170.2873 291.4188)" class="st6" cx="571.7" cy="529.5" rx="32.3" ry="9.3"/>
		
			<ellipse transform="matrix(0.9733 -0.2296 0.2296 0.9733 -105.7115 142.9127)" class="st6" cx="561.3" cy="525.8" rx="32.3" ry="9.3"/>
		
			<ellipse transform="matrix(0.9809 -0.1945 0.1945 0.9809 -60.9905 115.9062)" class="st6" cx="559.8" cy="368.6" rx="6.2" ry="32.3"/>
		
			<ellipse transform="matrix(0.9809 -0.1945 0.1945 0.9809 -61.5713 114.7555)" class="st6" cx="553.6" cy="370.9" rx="6.2" ry="32.3"/>
		
			<ellipse transform="matrix(0.9809 -0.1945 0.1945 0.9809 -63.1661 114.0349)" class="st6" cx="549.2" cy="378.7" rx="6.2" ry="32.3"/>
		
			<ellipse transform="matrix(0.9457 -0.325 0.325 0.9457 -96.323 199.1675)" class="st6" cx="547.9" cy="387.9" rx="6.2" ry="32.3"/>
		
			<ellipse transform="matrix(0.7405 -0.6721 0.6721 0.7405 -114.0248 464.1489)" class="st6" cx="544" cy="379.7" rx="5.1" ry="16.3"/>
		
			<ellipse transform="matrix(0.7405 -0.6721 0.6721 0.7405 -120.0088 465.3134)" class="st6" cx="542.5" cy="388.1" rx="5.1" ry="16.3"/>
		
			<ellipse transform="matrix(0.7405 -0.6721 0.6721 0.7405 -126.8162 466.5114)" class="st6" cx="540.7" cy="397.5" rx="5.1" ry="16.3"/>
		
			<ellipse transform="matrix(0.7405 -0.6721 0.6721 0.7405 -132.4728 467.2035)" class="st6" cx="538.7" cy="405.1" rx="5.1" ry="16.3"/>
		
			<ellipse transform="matrix(0.9733 -0.2296 0.2296 0.9733 -105.3303 133.2109)" class="st6" cx="519.8" cy="519.3" rx="16.3" ry="5.1"/>
		
			<ellipse transform="matrix(0.9733 -0.2296 0.2296 0.9733 -102.8435 134.997)" class="st6" cx="528.7" cy="509.5" rx="16.3" ry="5.1"/>
	</g>
	<g>
		
			<ellipse transform="matrix(0.7348 -0.6782 0.6782 0.7348 -220.8804 633.7233)" class="st6" cx="700" cy="599.3" rx="5.1" ry="16.3"/>
		
			<ellipse transform="matrix(0.9026 -0.4304 0.4304 0.9026 -191.9767 356.8054)" class="st6" cx="692.6" cy="602.7" rx="5.1" ry="16.3"/>
		
			<ellipse transform="matrix(0.9623 -0.272 0.272 0.9623 -139.0014 209.3822)" class="st6" cx="685.7" cy="606" rx="5.1" ry="16.3"/>
		
			<ellipse transform="matrix(0.9909 -0.1343 0.1343 0.9909 -75.5025 96.7986)" class="st6" cx="679.5" cy="607.9" rx="5.1" ry="16.3"/>
		
			<ellipse transform="matrix(6.195690e-02 -0.9981 0.9981 6.195690e-02 18.9553 1243.5771)" class="st6" cx="671.1" cy="611.7" rx="16.3" ry="5.1"/>
		
			<ellipse transform="matrix(6.195690e-02 -0.9981 0.9981 6.195690e-02 9.4439 1236.7708)" class="st6" cx="662.7" cy="613.4" rx="16.3" ry="5.1"/>
		
			<ellipse transform="matrix(0.2235 -0.9747 0.9747 0.2235 -89.7494 1117.986)" class="st6" cx="656.8" cy="615.3" rx="16.3" ry="5.1"/>
		
			<ellipse transform="matrix(0.2235 -0.9747 0.9747 0.2235 -92.2733 1109.3339)" class="st6" cx="650.1" cy="612.6" rx="16.3" ry="5.1"/>
		
			<ellipse transform="matrix(0.3354 -0.9421 0.9421 0.3354 -146.3389 1013.8204)" class="st6" cx="645.4" cy="610.6" rx="16.3" ry="5.1"/>
		
			<ellipse transform="matrix(0.3354 -0.9421 0.9421 0.3354 -150.8362 1006.8475)" class="st6" cx="638.2" cy="610.3" rx="16.3" ry="5.1"/>
		
			<ellipse transform="matrix(0.3354 -0.9421 0.9421 0.3354 -153.9876 997.7097)" class="st6" cx="630.1" cy="608" rx="16.3" ry="5.1"/>
		
			<ellipse transform="matrix(0.4206 -0.9072 0.9072 0.4206 -187.3075 916.0269)" class="st6" cx="623.5" cy="604.7" rx="16.3" ry="5.1"/>
		
			<ellipse transform="matrix(0.4206 -0.9072 0.9072 0.4206 -187.3803 907.5508)" class="st6" cx="616.9" cy="600.5" rx="16.3" ry="5.1"/>
		
			<ellipse transform="matrix(0.5814 -0.8136 0.8136 0.5814 -229.4635 748.4158)" class="st6" cx="612.6" cy="597.2" rx="16.3" ry="5.1"/>
		
			<ellipse transform="matrix(0.5814 -0.8136 0.8136 0.5814 -226.3126 741.9916)" class="st6" cx="608" cy="590.9" rx="16.3" ry="5.1"/>
		
			<ellipse transform="matrix(6.516083e-03 -1 1 6.516083e-03 54.6217 1235.9287)" class="st6" cx="649.3" cy="590.5" rx="11.7" ry="45.8"/>
		
			<ellipse transform="matrix(0.4206 -0.9072 0.9072 0.4206 -141.8664 937.6448)" class="st6" cx="663.2" cy="579.9" rx="9.3" ry="32.3"/>
		
			<ellipse transform="matrix(0.4206 -0.9072 0.9072 0.4206 -141.9715 913.6603)" class="st6" cx="644.4" cy="568" rx="9.3" ry="32.3"/>
		
			<ellipse transform="matrix(0.6903 -0.7236 0.7236 0.6903 -207.086 632.951)" class="st6" cx="635.7" cy="558.4" rx="9.3" ry="32.3"/>
		
			<ellipse transform="matrix(0.6903 -0.7236 0.7236 0.6903 -218.599 627.9023)" class="st6" cx="624.1" cy="569.3" rx="9.3" ry="32.3"/>
		
			<ellipse transform="matrix(0.6903 -0.7236 0.7236 0.6903 -222.7107 614.3384)" class="st6" cx="606.2" cy="567.3" rx="9.3" ry="32.3"/>
		
			<ellipse transform="matrix(0.4206 -0.9072 0.9072 0.4206 -187.3803 907.5508)" class="st6" cx="616.9" cy="600.5" rx="16.3" ry="5.1"/>
		
			<ellipse transform="matrix(0.4206 -0.9072 0.9072 0.4206 -184.8327 862.7615)" class="st6" cx="583.1" cy="576.1" rx="16.3" ry="5.1"/>
		
			<ellipse transform="matrix(0.4206 -0.9072 0.9072 0.4206 -175.9579 868.4486)" class="st6" cx="592" cy="572" rx="16.3" ry="5.1"/>
		
			<ellipse transform="matrix(0.4206 -0.9072 0.9072 0.4206 -167.0317 873.6346)" class="st6" cx="600.5" cy="567.6" rx="16.3" ry="5.1"/>
		
			<ellipse transform="matrix(0.4206 -0.9072 0.9072 0.4206 -175.3078 884.069)" class="st6" cx="604.5" cy="579.3" rx="16.3" ry="5.1"/>
		
			<ellipse transform="matrix(0.4206 -0.9072 0.9072 0.4206 -174.4773 876.9045)" class="st6" cx="599.3" cy="575.1" rx="16.3" ry="5.1"/>
		
			<ellipse transform="matrix(0.4206 -0.9072 0.9072 0.4206 -186.3154 854.5895)" class="st6" cx="575.9" cy="573.2" rx="16.3" ry="5.1"/>
		
			<ellipse transform="matrix(0.4206 -0.9072 0.9072 0.4206 -189.7486 846.8708)" class="st6" cx="568.2" cy="572" rx="16.3" ry="5.1"/>
		
			<ellipse transform="matrix(0.5432 -0.8396 0.8396 0.5432 -218.8187 734.0225)" class="st6" cx="565.1" cy="568.1" rx="16.3" ry="5.1"/>
		
			<ellipse transform="matrix(0.5432 -0.8396 0.8396 0.5432 -229.6675 718.701)" class="st6" cx="545.6" cy="570.4" rx="16.3" ry="5.1"/>
		
			<ellipse transform="matrix(0.5432 -0.8396 0.8396 0.5432 -221.4424 726.7975)" class="st6" cx="557.2" cy="566.9" rx="16.3" ry="5.1"/>
		
			<ellipse transform="matrix(0.8263 -0.5632 0.5632 0.8263 -191.5386 434.1381)" class="st6" cx="608.1" cy="527.6" rx="9.3" ry="32.3"/>
		
			<ellipse transform="matrix(0.8263 -0.5632 0.5632 0.8263 -198.2508 431.6096)" class="st6" cx="600.7" cy="537.2" rx="9.3" ry="32.3"/>
		
			<ellipse transform="matrix(0.4206 -0.9072 0.9072 0.4206 -156.0296 849.0945)" class="st6" cx="586.8" cy="546.7" rx="32.3" ry="9.3"/>
		
			<ellipse transform="matrix(0.7348 -0.6782 0.6782 0.7348 -210.7808 529.2779)" class="st6" cx="571.5" cy="534.2" rx="32.3" ry="9.3"/>
		
			<ellipse transform="matrix(0.5814 -0.8136 0.8136 0.5814 -204.596 692.8412)" class="st6" cx="571.1" cy="545.3" rx="32.3" ry="9.3"/>
		
			<ellipse transform="matrix(0.2235 -0.9747 0.9747 0.2235 -77.4646 1105.0468)" class="st6" cx="654.9" cy="601.1" rx="16.3" ry="5.1"/>
		
			<ellipse transform="matrix(0.2235 -0.9747 0.9747 0.2235 -69.6076 1118.0156)" class="st6" cx="666.9" cy="602.7" rx="16.3" ry="5.1"/>
		
			<ellipse transform="matrix(0.2235 -0.9747 0.9747 0.2235 -74.4974 1011.9601)" class="st6" cx="597.9" cy="552.7" rx="16.3" ry="5.1"/>
	</g>
	<g>
		
			<ellipse transform="matrix(0.7071 -0.7071 0.7071 0.7071 -284.5455 507.6319)" class="st7" cx="470.5" cy="597.3" rx="98.8" ry="13.5"/>
		
			<ellipse transform="matrix(0.6454 -0.7638 0.7638 0.6454 -320.781 542.4568)" class="st7" cx="423.9" cy="616.7" rx="89.1" ry="13.9"/>
		
			<ellipse transform="matrix(0.8263 -0.5632 0.5632 0.8263 -288.5221 324.4071)" class="st7" cx="381.7" cy="630" rx="98.8" ry="15.2"/>
		
			<ellipse transform="matrix(0.8814 -0.4723 0.4723 0.8814 -212.6736 282.9217)" class="st7" cx="457.2" cy="565.1" rx="98.8" ry="10.6"/>
		
			<ellipse transform="matrix(0.7796 -0.6262 0.6262 0.7796 -272.4035 417.6032)" class="st7" cx="457.2" cy="595.9" rx="89.1" ry="13.9"/>
		
			<ellipse transform="matrix(0.7348 -0.6782 0.6782 0.7348 -260.1841 500.6956)" class="st7" cx="510.2" cy="583.1" rx="98.8" ry="13.5"/>
		
			<ellipse transform="matrix(0.7796 -0.6262 0.6262 0.7796 -242.6661 440.095)" class="st7" cx="504" cy="564.9" rx="81.1" ry="13.9"/>
		
			<ellipse transform="matrix(0.8814 -0.4723 0.4723 0.8814 -206.5695 300.595)" class="st7" cx="495.4" cy="561.7" rx="98.8" ry="10.6"/>
		
			<ellipse transform="matrix(0.849 -0.5284 0.5284 0.849 -218.7722 353.7553)" class="st7" cx="509.6" cy="559.7" rx="87.4" ry="24.1"/>
	</g>
	<path class="st8" d="M651.6,505.4c-3.6,8,3.9,13.4,0.4,24.2c-0.5,1.5-2,5.6-0.2,7.8c1.1,1.3,2.9,1.4,3.1,1.4
		c2.9,0.1,5.2-2.6,7.1-4.9c4.6-5.9,7-10.2,10.9-16.6c3.5-5.6,5.2-8.4,6.8-10c0.6-0.6,11.1,0.7,14.4-3.4c0.6-0.8,1.8-5.8,2.4-7.5
		c0.3-0.8-7.9-3.1-9-4.4c-1.3-1.6-5.1-0.4-6.7,0.1C662.7,498,653.7,500.9,651.6,505.4z"/>
	<path class="st9" d="M657.7,538.2c1,1.3,12.5-5,22-12.8c6.9-5.7,7.5-5.4,10.4-8.3c0.8-0.8,6-11,5.5-12.8c-0.6-2.5-5-3.6-6-3.8
		c-1.6-0.4-2.7-0.7-3.9-0.3c-2.5,0.6-3.2,2.9-6.9,8.5c-1.9,2.8-1.4,1.8-5.5,7.5c-1.8,2.6-1.9,2.7-4.6,6.6c-2.2,3.2-3.6,5.1-5.3,7.4
		C658.4,536.9,657.4,537.7,657.7,538.2z"/>
	<path class="st10" d="M690.6,507.4c-0.4,1.1-0.3,3.4-0.1,6.4c0.1,0.9-0.5,5.2,1.5,5.7c2.2,0.6,5.3-3.8,6.7-6.9
		c0.3-0.8,1.7-4.1,1.2-8.5c-0.4-3.6-2.1-7.8-3.5-7.7c-0.9,0.1-0.8,1.9-2.7,5.7C692.2,505.1,691.6,505,690.6,507.4z"/>
	<circle class="st11" cx="672.5" cy="509.2" r="1.9"/>
</g>
</svg>
