<svg xmlns="http://www.w3.org/2000/svg" xmlns:xlink="http://www.w3.org/1999/xlink" width="226.622" height="358.819" viewBox="0 0 226.622 358.819"><defs><linearGradient id="a" x1="0.053" y1="0.33" x2="1.079" y2="0.33" gradientUnits="objectBoundingBox"><stop offset="0" stop-color="#262262"/><stop offset="0.5" stop-color="#662d91"/><stop offset="0.673" stop-color="#632c8e"/><stop offset="0.8" stop-color="#5b2a84"/><stop offset="0.911" stop-color="#4e2674"/><stop offset="1" stop-color="#3e2262"/></linearGradient><linearGradient id="b" x1="0.053" y1="0.33" x2="1.079" y2="0.33" gradientUnits="objectBoundingBox"><stop offset="0" stop-color="#17224d"/><stop offset="0.105" stop-color="#30235a" stop-opacity="0.792"/><stop offset="0.32" stop-color="#5b2471" stop-opacity="0.447"/><stop offset="0.539" stop-color="#792681" stop-opacity="0.196"/><stop offset="0.764" stop-color="#8b268b" stop-opacity="0.047"/><stop offset="1" stop-color="#92278f" stop-opacity="0"/></linearGradient><linearGradient id="c" x1="0.062" y1="-0.001" x2="1.055" y2="-0.001" gradientUnits="objectBoundingBox"><stop offset="0" stop-color="#92278f" stop-opacity="0"/><stop offset="0.05" stop-color="#94298f" stop-opacity="0.161"/><stop offset="0.132" stop-color="#972d8f" stop-opacity="0.384"/><stop offset="0.221" stop-color="#9a3090" stop-opacity="0.576"/><stop offset="0.319" stop-color="#9c3290" stop-opacity="0.729"/><stop offset="0.427" stop-color="#9e3490" stop-opacity="0.851"/><stop offset="0.552" stop-color="#a03590" stop-opacity="0.937"/><stop offset="0.709" stop-color="#a03690" stop-opacity="0.984"/><stop offset="1" stop-color="#a13791"/></linearGradient><linearGradient id="d" x1="0.074" y1="0.514" x2="1.282" y2="0.514" gradientUnits="objectBoundingBox"><stop offset="0" stop-color="#1c75bc"/><stop offset="0.5" stop-color="#00aeef"/><stop offset="1" stop-color="#4fd5df"/></linearGradient><linearGradient id="e" x1="-0.245" y1="1.045" x2="-0.245" y2="0.012" gradientUnits="objectBoundingBox"><stop offset="0" stop-color="#da1c5c"/><stop offset="0.5" stop-color="#9e1f63"/><stop offset="1" stop-color="#9e1f63"/></linearGradient><linearGradient id="f" x1="-0.229" y1="1.045" x2="-0.229" y2="0.012" gradientUnits="objectBoundingBox"><stop offset="0" stop-color="#da1c5c"/><stop offset="0.995" stop-color="#351840"/></linearGradient><linearGradient id="g" x1="-0.155" y1="0.545" x2="1.045" y2="0.545" gradientUnits="objectBoundingBox"><stop offset="0" stop-color="#ee2a7b"/><stop offset="0.5" stop-color="#da1c5c"/><stop offset="1" stop-color="#9e1f63"/></linearGradient><linearGradient id="h" x1="-0.155" y1="0.545" x2="1.047" y2="0.545" gradientUnits="objectBoundingBox"><stop offset="0" stop-color="#ee2a7b" stop-opacity="0"/><stop offset="0.02" stop-color="#ee2a7a" stop-opacity="0.09"/><stop offset="0.07" stop-color="#ef2d79" stop-opacity="0.302"/><stop offset="0.123" stop-color="#ef2e79" stop-opacity="0.49"/><stop offset="0.177" stop-color="#f03078" stop-opacity="0.647"/><stop offset="0.233" stop-color="#f13177" stop-opacity="0.776"/><stop offset="0.291" stop-color="#f13277" stop-opacity="0.875"/><stop offset="0.352" stop-color="#f13377" stop-opacity="0.945"/><stop offset="0.418" stop-color="#f13377" stop-opacity="0.988"/><stop offset="0.5" stop-color="#f23477"/><stop offset="0.561" stop-color="#f03376" stop-opacity="0.984"/><stop offset="0.625" stop-color="#ec3275" stop-opacity="0.929"/><stop offset="0.691" stop-color="#e43073" stop-opacity="0.843"/><stop offset="0.757" stop-color="#da2e71" stop-opacity="0.722"/><stop offset="0.824" stop-color="#cd2a6e" stop-opacity="0.565"/><stop offset="0.892" stop-color="#bd266a" stop-opacity="0.376"/><stop offset="0.959" stop-color="#a26" stop-opacity="0.153"/><stop offset="1" stop-color="#9e1f63" stop-opacity="0"/></linearGradient><linearGradient id="i" x1="0.078" y1="0.514" x2="1.342" y2="0.514" gradientUnits="objectBoundingBox"><stop offset="0" stop-color="#d9e8bc"/><stop offset="1" stop-color="#4fd5df"/></linearGradient><linearGradient id="j" x1="0.344" y1="0.968" x2="1.031" y2="0.008" gradientUnits="objectBoundingBox"><stop offset="0" stop-color="#1c75bc" stop-opacity="0"/><stop offset="0.06" stop-color="#448dc5" stop-opacity="0.18"/><stop offset="0.151" stop-color="#7cafd1" stop-opacity="0.427"/><stop offset="0.238" stop-color="#abccdc" stop-opacity="0.631"/><stop offset="0.318" stop-color="#cfe2e4" stop-opacity="0.792"/><stop offset="0.391" stop-color="#e9f1ea" stop-opacity="0.906"/><stop offset="0.454" stop-color="#f9fbed" stop-opacity="0.976"/><stop offset="0.5" stop-color="#ffffef"/><stop offset="0.591" stop-color="#fcfeee" stop-opacity="0.988"/><stop offset="0.657" stop-color="#f6fcee" stop-opacity="0.953"/><stop offset="0.716" stop-color="#ebfaed" stop-opacity="0.89"/><stop offset="0.77" stop-color="#dbf6eb" stop-opacity="0.8"/><stop offset="0.821" stop-color="#c7f1e9" stop-opacity="0.686"/><stop offset="0.869" stop-color="#afebe7" stop-opacity="0.549"/><stop offset="0.916" stop-color="#92e4e5" stop-opacity="0.38"/><stop offset="0.961" stop-color="#71dde2" stop-opacity="0.192"/><stop offset="1" stop-color="#4fd5df" stop-opacity="0"/></linearGradient><linearGradient id="k" x1="-0.171" y1="0.545" x2="1.082" y2="0.545" gradientUnits="objectBoundingBox"><stop offset="0" stop-color="#ee2a7b" stop-opacity="0"/><stop offset="0.245" stop-color="#d22672" stop-opacity="0.337"/><stop offset="0.487" stop-color="#bc236c" stop-opacity="0.624"/><stop offset="0.7" stop-color="#ab2067" stop-opacity="0.831"/><stop offset="0.879" stop-color="#a11f64" stop-opacity="0.953"/><stop offset="1" stop-color="#9e1f63"/></linearGradient><linearGradient id="l" x1="-0.205" y1="0.545" x2="1.051" y2="0.545" gradientUnits="objectBoundingBox"><stop offset="0" stop-color="#ee2a7b" stop-opacity="0"/><stop offset="0.03" stop-color="#f0478d" stop-opacity="0.137"/><stop offset="0.079" stop-color="#f371a7" stop-opacity="0.337"/><stop offset="0.131" stop-color="#f697be" stop-opacity="0.514"/><stop offset="0.184" stop-color="#f9b7d2" stop-opacity="0.663"/><stop offset="0.238" stop-color="#fbd1e2" stop-opacity="0.788"/><stop offset="0.295" stop-color="#fce5ef" stop-opacity="0.882"/><stop offset="0.355" stop-color="#fef3f8" stop-opacity="0.949"/><stop offset="0.42" stop-color="#fefcfd" stop-opacity="0.988"/><stop offset="0.5" stop-color="#fff"/><stop offset="0.56" stop-color="#fdfbfc" stop-opacity="0.984"/><stop offset="0.622" stop-color="#f8f0f4" stop-opacity="0.933"/><stop offset="0.686" stop-color="#f0dde7" stop-opacity="0.851"/><stop offset="0.75" stop-color="#e5c4d5" stop-opacity="0.737"/><stop offset="0.816" stop-color="#d7a2be" stop-opacity="0.588"/><stop offset="0.881" stop-color="#c57aa2" stop-opacity="0.408"/><stop offset="0.947" stop-color="#b04a81" stop-opacity="0.196"/><stop offset="1" stop-color="#9e1f63" stop-opacity="0"/></linearGradient></defs><g transform="translate(-270.41 -171.173)"><path d="M496.981,350.388h0c-.341-9.1-5.272-15.168-11.3-19.2-10.051-6.715-23.157-7.768-23.157-7.768l.021.012c-6.57-.7-13.427-.2-21.367,1.11-6.9,1.14-14.6,2.9-23.589,5.025-31.178,7.366-54.035,11.124-70.649,12.875q1.721-1.682,3.535-3.406,7.323-6.957,16.253-14.677,3.227-2.789,6.663-5.672,1.676-1.407,3.4-2.836,5.151-4.265,10.75-8.73,1.755-1.4,3.555-2.819,2.492-1.965,5.066-3.965,1.162-.9,2.342-1.814,5.469-4.221,11.3-8.6,2.163-1.621,4.376-3.264C502.259,221.3,457.85,171.173,457.85,171.173h0l0,0C400.691,224.068,317.011,284.187,311.832,287.9l-.253.18-.1.079c-3.917,3.24-7.713,6.423-11.31,9.6-20.086,17.7-33.2,34.246-28.972,60.287a65.453,65.453,0,0,0,2.1,9.022q.648,2.073,1.408,3.972c.425,1.063.88,2.078,1.354,3.062q.357.742.731,1.455c.437.832.885,1.645,1.355,2.419a40.448,40.448,0,0,0,5.18,6.821q.622.662,1.264,1.283a40.775,40.775,0,0,0,14.216,8.83c6.311,2.911,14.746,4.074,24.923,3.261a64.466,64.466,0,0,0,10.348-1.4q.21-.02.45-.048c.482-.058,1.054-.141,1.7-.248q.325-.054.676-.115c.468-.081.97-.173,1.5-.273l.821-.158c2.249-.439,4.964-1.017,7.954-1.684l1.133-.255c4.2-.946,8.875-2.046,13.523-3.164l1.267-.305,2.521-.611,2.488-.607,2.438-.6,1.2-.3c1.185-.292,2.342-.578,3.459-.856l2.18-.542,3.975-.995,1.759-.443,1.584-.4c2.978-.753,4.791-1.217,4.791-1.217l.226-.166.128-.093.237-.173.172-.126.445-.323.1-.073.214-.154a191.6,191.6,0,0,0-13.5,13.631q-.735.824-1.437,1.645a92.185,92.185,0,0,0-6.267,8.213q-.554.817-1.079,1.634a76.058,76.058,0,0,0-12.527,41.949,70.919,70.919,0,0,0,.513,8.143c.144,1.178.308,2.261.478,3.24.3,1.712.614,3.1.876,4.13.112.439.214.811.3,1.111.057.2.108.369.15.505.084.271.132.411.132.411l.087.048c9.8,32.835,43.524,47.162,43.524,47.162.994.551,2.015,1.1,3.045,1.649,9.938,6.111,24.085,11.4,30.955,13.64a.6.6,0,0,0,.53-1.056c-52.242-38.537-27.895-86.533-25.334-91.228C443.005,403.576,498.968,377.347,496.981,350.388ZM331.87,396.763c.23,0,.445.006.643.013C332.3,396.774,332.083,396.767,331.87,396.763Z" fill="#232428"/><path d="M305.8,341.573s19.409,9.823,111.791-12c20.655-4.88,34.333-7.788,47.251-5.844,0,0,11.445,11.96-14.092,22.941S389.5,383.956,389.5,383.956s-51.573,13.221-56.4,12.849-25.981,2.222-37.7-16.635S305.8,341.573,305.8,341.573Z" fill="url(#a)"/><path d="M305.8,341.573s19.418,9.861,111.791-12c20.523-4.858,34.333-7.788,47.251-5.844,0,0,11.445,11.96-14.092,22.941S389.5,383.956,389.5,383.956s-51.573,13.221-56.4,12.849-25.981,2.222-37.7-16.635S305.8,341.573,305.8,341.573Z" fill="url(#b)"/><path d="M363.392,370.385c-54.783,13.8-53.148.881-53.148.881s-6.241-9.866-12.2-20.478c-4.974,7.505-9.359,18.585-2.646,29.382,11.724,18.856,32.88,16.263,37.7,16.635s56.4-12.849,56.4-12.849,28.547-21.026,52.847-33.329C422.553,354.786,394.565,362.535,363.392,370.385Z" opacity="0.43" fill="url(#c)"/><path d="M457.85,171.173s44.409,50.125-43.669,115.492c-94.451,70.1-118.919,110.913-80.1,110.1,0,0-54.43,13.386-62.882-38.724-4.98-30.707,15.184-49.137,40.377-69.968C311.579,288.077,398.848,225.774,457.85,171.173Z" fill="url(#d)"/><path d="M411.687,437.3s-29.864,51.046,25.122,91.608a.6.6,0,0,1-.53,1.056c-8.736-2.849-22.706-9.027-34-15.289C367.907,495.612,394.409,456.142,411.687,437.3Z" fill="url(#e)"/><path d="M411.687,437.3s-29.864,51.046,25.122,91.608a.6.6,0,0,1-.53,1.056c-8.736-2.849-29.239-10.625-37.891-18.755C369.746,484.292,394.409,456.142,411.687,437.3Z" fill="url(#f)"/><path d="M496.981,350.388c-1.872-23.947-34.459-26.965-34.459-26.965,19.6,10.729-40.827,23.61-84.994,73.056-31.334,35.08-18.86,70.981-18.86,70.981l.087.048c9.8,32.835,43.524,47.162,43.524,47.162C348.152,436.7,500.234,394.525,496.981,350.388Z" fill="url(#g)"/><path d="M496.981,350.388c-.909-24.268-34.459-26.965-34.459-26.965,19.6,10.729-40.827,23.61-84.994,73.056-31.334,35.08-18.86,70.981-18.86,70.981l.087.048c9.8,32.835,43.524,47.162,43.524,47.162C348.152,436.7,496.316,396.259,496.981,350.388Z" fill="url(#h)"/><path d="M364.044,280.357c101.735-72.6,93.806-109.184,93.806-109.184-52.193,49.763-146.271,116.9-146.271,116.9-26.242,21.752-45.357,39.261-40.377,69.968,8.452,52.11,62.882,38.724,62.882,38.724C270.747,408.669,258.961,355.343,364.044,280.357Z" fill="url(#i)"/><path d="M457.85,171.173h0s7.926,36.588-93.806,109.184c-80.374,57.354-92.375,102.035-65.237,114.552,8.9,3.322,18.14,3.677,24.932,3.26a98.606,98.606,0,0,0,10.344-1.4c-38.821.809-14.353-40.007,80.1-110.1C502.259,221.3,457.85,171.173,457.85,171.173Z" opacity="0.25" fill="url(#j)"/><path d="M473.18,356.08c18.063-13.321,8.794-24.473,7.869-25.507a47.435,47.435,0,0,0-18.527-7.15c19.6,10.729-40.827,23.61-84.994,73.056-31.334,35.08-18.86,70.981-18.86,70.981l.087.048c9.8,32.835,43.524,47.162,43.524,47.162C302.254,456.166,453.612,370.511,473.18,356.08Z" fill="url(#k)"/><path d="M462.522,323.423a47.435,47.435,0,0,1,18.527,7.15c.925,1.034,10.194,12.186-7.869,25.507-19.567,14.431-173.251,97.183-70.9,158.59-54.127-77.966,94.037-118.411,94.7-164.282C496.072,326.12,462.522,323.423,462.522,323.423Z" opacity="0.17" fill="url(#l)"/></g></svg>